<?xml version="1.0" encoding="UTF-8"?>
<svg width="1200pt" height="1200pt" version="1.1" viewBox="0 0 1200 1200" xmlns="http://www.w3.org/2000/svg">
 <g fill="#ff814a">
  <path d="m456.88 101.82c7.8203-4.0078 16.449-6.1797 25.234-6.3555 3.0547-0.26562 6.125-0.26562 9.1758 0 141.18 26.469 239.82 84.176 301.94 176.47v0.003906c41.395 63.711 65.703 137 70.59 212.82 10.059-130.06-13.234-234.36-69.707-311.12-67.234-91.766-178.94-138.36-331.23-138.36-5.3398-0.015625-10.402 2.3828-13.766 6.5312-3.2188 4.1523-4.5625 9.4609-3.707 14.645l9.5312 46.41z"/>
  <path d="m392.82 499.41c30.59-27.309 66.703-47.711 105.88-59.82-48.184 79.914-82.379 167.46-101.12 258.88h407.29c4.4336-0.027344 8.8633 0.32812 13.234 1.0625 28.941-177.71 11.293-311.3-54-407.12-56.648-84-147.88-136.77-278.65-161.29-4.0273-0.65625-8.1602-0.039063-11.82 1.7656-107.82 58.766-196.23 140.12-230.47 211.77h-0.003907c-6.9531 14.797-10.566 30.941-10.586 47.293v25.941c-0.27734 29.324 11.305 57.516 32.117 78.176 16.871 16.844 39.559 26.578 63.391 27.203 23.832 0.62109 46.996-7.9141 64.727-23.852zm51.531-253.59-0.003907 0.003907c8.2578-8.6641 19.805-13.41 31.766-13.059 11.797-0.023437 23.109 4.6797 31.414 13.059 3.2852 3.3047 5.1289 7.7773 5.1289 12.441 0 4.6602-1.8438 9.1328-5.1289 12.441-3.3086 3.2852-7.7812 5.1289-12.441 5.1289-4.6641 0-9.1367-1.8438-12.441-5.1289-1.8047-1.7266-4.2109-2.6797-6.707-2.6484-2.4492-0.0625-4.8164 0.89844-6.5312 2.6484-4.4414 4.4766-10.938 6.2383-17.039 4.6289-6.0977-1.6094-10.875-6.3555-12.527-12.441-1.6562-6.0859 0.0625-12.594 4.5078-17.07z"/>
  <path d="m360 883.41c-9.3008 0.007813-18.434-2.4375-26.488-7.082-8.0547-4.6484-14.746-11.332-19.395-19.387-34.844 46.621-57.473 101.22-65.824 158.82h703.41c-8.2852-57.621-30.918-112.24-65.824-158.82-9.4336 16.336-26.844 26.418-45.707 26.469z"/>
  <path d="m840.18 848.12c4.6797 0 9.168-1.8594 12.48-5.168 3.3086-3.3086 5.168-7.7969 5.168-12.48v-43.938c0-14.043-5.5781-27.508-15.508-37.438-9.9258-9.9297-23.395-15.504-37.434-15.504h-409.77c-14.039 0-27.508 5.5742-37.434 15.504-9.9297 9.9297-15.508 23.395-15.508 37.438v43.941-0.003906c0 4.6836 1.8594 9.1719 5.168 12.48 3.3125 3.3086 7.8008 5.168 12.48 5.168z"/>
  <path d="m949.06 1050.5h-697.94c-15.125-0.082031-29.641 5.9648-40.234 16.762-10.852 10.633-16.996 25.168-17.059 40.359s5.9648 29.777 16.727 40.496c10.766 10.719 25.375 16.684 40.566 16.559h697.94c15.043 0.097657 29.492-5.8828 40.059-16.59 10.801-10.648 16.914-25.164 16.98-40.332 0.066406-15.168-5.9141-29.738-16.617-40.484-10.707-10.746-25.254-16.781-40.422-16.77z"/>
 </g>
</svg>
